<mxfile host="app.diagrams.net" modified="2023-09-09T06:13:58.171Z" agent="Mozilla/5.0 (Windows NT 10.0; Win64; x64) AppleWebKit/537.36 (KHTML, like Gecko) Chrome/116.0.0.0 Safari/537.36 Edg/116.0.1938.69" etag="-4TV1iI4TSdNTj-Qu9b6" version="21.7.4" type="github">
  <diagram name="PÃ¡gina-1" id="sV47CRGqTqnu8nYu1mC-">
    <mxGraphModel dx="1397" dy="766" grid="1" gridSize="10" guides="1" tooltips="1" connect="1" arrows="1" fold="1" page="1" pageScale="1" pageWidth="827" pageHeight="1169" math="0" shadow="0">
      <root>
        <mxCell id="0" />
        <mxCell id="1" parent="0" />
        <mxCell id="BNKGFeQufU-HLcN2Bx8k-3" value="AWS Cloud" style="points=[[0,0],[0.25,0],[0.5,0],[0.75,0],[1,0],[1,0.25],[1,0.5],[1,0.75],[1,1],[0.75,1],[0.5,1],[0.25,1],[0,1],[0,0.75],[0,0.5],[0,0.25]];outlineConnect=0;gradientColor=none;html=1;whiteSpace=wrap;fontSize=12;fontStyle=0;container=1;pointerEvents=0;collapsible=0;recursiveResize=0;shape=mxgraph.aws4.group;grIcon=mxgraph.aws4.group_aws_cloud_alt;strokeColor=#232F3E;fillColor=none;verticalAlign=top;align=left;spacingLeft=30;fontColor=#232F3E;dashed=0;" parent="1" vertex="1">
          <mxGeometry x="60" y="300" width="1000" height="590" as="geometry" />
        </mxCell>
        <mxCell id="hj1fgZ8IY8RdFM9NK64y-10" value="Almacenamiento" style="fillColor=none;strokeColor=#5A6C86;dashed=1;verticalAlign=top;fontStyle=0;fontColor=#5A6C86;whiteSpace=wrap;html=1;" vertex="1" parent="BNKGFeQufU-HLcN2Bx8k-3">
          <mxGeometry x="670" y="295" width="220" height="201" as="geometry" />
        </mxCell>
        <mxCell id="BNKGFeQufU-HLcN2Bx8k-12" style="edgeStyle=orthogonalEdgeStyle;rounded=0;orthogonalLoop=1;jettySize=auto;html=1;" parent="BNKGFeQufU-HLcN2Bx8k-3" source="BNKGFeQufU-HLcN2Bx8k-7" target="BNKGFeQufU-HLcN2Bx8k-9" edge="1">
          <mxGeometry relative="1" as="geometry" />
        </mxCell>
        <mxCell id="BNKGFeQufU-HLcN2Bx8k-7" value="" style="sketch=0;outlineConnect=0;fontColor=#232F3E;gradientColor=none;fillColor=#232F3D;strokeColor=none;dashed=0;verticalLabelPosition=bottom;verticalAlign=top;align=center;html=1;fontSize=12;fontStyle=0;aspect=fixed;pointerEvents=1;shape=mxgraph.aws4.generic_application;" parent="BNKGFeQufU-HLcN2Bx8k-3" vertex="1">
          <mxGeometry x="170" y="367" width="78" height="78" as="geometry" />
        </mxCell>
        <mxCell id="BNKGFeQufU-HLcN2Bx8k-9" value="" style="sketch=0;outlineConnect=0;fontColor=#232F3E;gradientColor=none;fillColor=#232F3D;strokeColor=none;dashed=0;verticalLabelPosition=bottom;verticalAlign=top;align=center;html=1;fontSize=12;fontStyle=0;aspect=fixed;pointerEvents=1;shape=mxgraph.aws4.generic_database;" parent="BNKGFeQufU-HLcN2Bx8k-3" vertex="1">
          <mxGeometry x="440" y="356" width="75.64" height="100" as="geometry" />
        </mxCell>
        <mxCell id="BNKGFeQufU-HLcN2Bx8k-11" value="" style="shape=image;verticalLabelPosition=bottom;labelBackgroundColor=default;verticalAlign=top;aspect=fixed;imageAspect=0;image=https://upload.wikimedia.org/wikipedia/commons/thumb/c/ca/MariaDB_colour_logo.svg/2560px-MariaDB_colour_logo.svg.png;" parent="BNKGFeQufU-HLcN2Bx8k-3" vertex="1">
          <mxGeometry x="423.91" y="325.45" width="107.82" height="30.55" as="geometry" />
        </mxCell>
        <mxCell id="hj1fgZ8IY8RdFM9NK64y-1" value="" style="shape=image;verticalLabelPosition=bottom;labelBackgroundColor=default;verticalAlign=top;aspect=fixed;imageAspect=0;image=https://cdn-images-1.medium.com/fit/t/1600/480/1*kyEKW8WvT5-eeajWTD3Fvg.png;" vertex="1" parent="BNKGFeQufU-HLcN2Bx8k-3">
          <mxGeometry x="170" y="340" width="90" height="27" as="geometry" />
        </mxCell>
        <mxCell id="hj1fgZ8IY8RdFM9NK64y-3" value="Servidor EC2" style="points=[[0,0],[0.25,0],[0.5,0],[0.75,0],[1,0],[1,0.25],[1,0.5],[1,0.75],[1,1],[0.75,1],[0.5,1],[0.25,1],[0,1],[0,0.75],[0,0.5],[0,0.25]];outlineConnect=0;gradientColor=none;html=1;whiteSpace=wrap;fontSize=12;fontStyle=0;container=1;pointerEvents=0;collapsible=0;recursiveResize=0;shape=mxgraph.aws4.group;grIcon=mxgraph.aws4.group_ec2_instance_contents;strokeColor=#D86613;fillColor=none;verticalAlign=top;align=left;spacingLeft=30;fontColor=#D86613;dashed=0;" vertex="1" parent="BNKGFeQufU-HLcN2Bx8k-3">
          <mxGeometry x="130" y="295" width="430" height="191" as="geometry" />
        </mxCell>
        <mxCell id="hj1fgZ8IY8RdFM9NK64y-8" style="edgeStyle=orthogonalEdgeStyle;rounded=0;orthogonalLoop=1;jettySize=auto;html=1;entryX=0.25;entryY=0;entryDx=0;entryDy=0;" edge="1" parent="BNKGFeQufU-HLcN2Bx8k-3" target="hj1fgZ8IY8RdFM9NK64y-3">
          <mxGeometry relative="1" as="geometry">
            <mxPoint x="239" y="220" as="sourcePoint" />
            <mxPoint x="240" y="290" as="targetPoint" />
          </mxGeometry>
        </mxCell>
        <mxCell id="hj1fgZ8IY8RdFM9NK64y-4" value="Vista de la App" style="fillColor=none;strokeColor=#5A6C86;dashed=1;verticalAlign=top;fontStyle=0;fontColor=#5A6C86;whiteSpace=wrap;html=1;" vertex="1" parent="BNKGFeQufU-HLcN2Bx8k-3">
          <mxGeometry x="130" y="28.45" width="220" height="191" as="geometry" />
        </mxCell>
        <mxCell id="hj1fgZ8IY8RdFM9NK64y-5" value="" style="sketch=0;points=[[0,0,0],[0.25,0,0],[0.5,0,0],[0.75,0,0],[1,0,0],[0,1,0],[0.25,1,0],[0.5,1,0],[0.75,1,0],[1,1,0],[0,0.25,0],[0,0.5,0],[0,0.75,0],[1,0.25,0],[1,0.5,0],[1,0.75,0]];outlineConnect=0;fontColor=#232F3E;fillColor=#DD344C;strokeColor=#ffffff;dashed=0;verticalLabelPosition=bottom;verticalAlign=top;align=center;html=1;fontSize=12;fontStyle=0;aspect=fixed;shape=mxgraph.aws4.resourceIcon;resIcon=mxgraph.aws4.amplify;" vertex="1" parent="BNKGFeQufU-HLcN2Bx8k-3">
          <mxGeometry x="130" y="28.44999999999999" width="30" height="30" as="geometry" />
        </mxCell>
        <mxCell id="hj1fgZ8IY8RdFM9NK64y-6" value="" style="sketch=0;outlineConnect=0;fontColor=#232F3E;gradientColor=none;fillColor=#232F3D;strokeColor=none;dashed=0;verticalLabelPosition=bottom;verticalAlign=top;align=center;html=1;fontSize=12;fontStyle=0;aspect=fixed;pointerEvents=1;shape=mxgraph.aws4.generic_application;" vertex="1" parent="BNKGFeQufU-HLcN2Bx8k-3">
          <mxGeometry x="201" y="95.44999999999999" width="78" height="78" as="geometry" />
        </mxCell>
        <mxCell id="hj1fgZ8IY8RdFM9NK64y-7" value="" style="shape=image;verticalLabelPosition=bottom;labelBackgroundColor=default;verticalAlign=top;aspect=fixed;imageAspect=0;image=https://logos-download.com/wp-content/uploads/2016/09/React_logo_wordmark.png;" vertex="1" parent="BNKGFeQufU-HLcN2Bx8k-3">
          <mxGeometry x="208.74" y="73.44999999999999" width="62.53" height="21" as="geometry" />
        </mxCell>
        <mxCell id="hj1fgZ8IY8RdFM9NK64y-9" value="" style="sketch=0;points=[[0,0,0],[0.25,0,0],[0.5,0,0],[0.75,0,0],[1,0,0],[0,1,0],[0.25,1,0],[0.5,1,0],[0.75,1,0],[1,1,0],[0,0.25,0],[0,0.5,0],[0,0.75,0],[1,0.25,0],[1,0.5,0],[1,0.75,0]];outlineConnect=0;fontColor=#232F3E;fillColor=#7AA116;strokeColor=#ffffff;dashed=0;verticalLabelPosition=bottom;verticalAlign=top;align=center;html=1;fontSize=12;fontStyle=0;aspect=fixed;shape=mxgraph.aws4.resourceIcon;resIcon=mxgraph.aws4.s3;" vertex="1" parent="BNKGFeQufU-HLcN2Bx8k-3">
          <mxGeometry x="670" y="295" width="35" height="35" as="geometry" />
        </mxCell>
        <mxCell id="hj1fgZ8IY8RdFM9NK64y-11" value="Almacenamiento S3" style="sketch=0;outlineConnect=0;fontColor=#232F3E;gradientColor=none;fillColor=#7AA116;strokeColor=none;dashed=0;verticalLabelPosition=bottom;verticalAlign=top;align=center;html=1;fontSize=12;fontStyle=0;aspect=fixed;pointerEvents=1;shape=mxgraph.aws4.bucket;" vertex="1" parent="BNKGFeQufU-HLcN2Bx8k-3">
          <mxGeometry x="743" y="357" width="75" height="78" as="geometry" />
        </mxCell>
      </root>
    </mxGraphModel>
  </diagram>
</mxfile>
